<svg xmlns="http://www.w3.org/2000/svg" xmlns:xlink="http://www.w3.org/1999/xlink" version="1.1" x="0px" y="0px" viewBox="0 0 414.19 397.02" style="enable-background:new 0 0 414.19 397.02;" xml:space="preserve">
<style type="text/css">
	.st0{fill:#023942;}
</style>
<g id="BACKGROUND">
	<g>
		<path class="st0" d="M257.79,224.49c-0.59-0.59-1.71-1.14-3.17-1.68c-2.95-1.06-7.36-2-12.68-2.86    c-5.33-0.84-11.6-1.59-18.32-2.23c-3.36-0.33-6.85-0.58-10.38-0.86c-3.54-0.27-7.13-0.49-10.74-0.67    c-3.6-0.21-7.2-0.37-10.75-0.48c-3.55-0.1-7.04-0.22-10.41-0.25c-3.38-0.02-6.64-0.05-9.74,0c-3.09,0.06-6.02,0.13-8.72,0.27    c-5.39,0.28-9.87,0.75-12.92,1.49c-1.51,0.38-2.69,0.8-3.33,1.33c-0.67,0.51-0.67,1.06-0.69,1.04    c-0.23,4.38,24.75,9.28,55.79,10.93c31.05,1.66,56.41-0.56,56.64-4.94C258.35,225.61,258.41,225.07,257.79,224.49z"/>
		<path class="st0" d="M318.72,185.81l-111.72-54.27L90.15,173.62l56.76,27.57l-0.98,18.4c0.03,0.02-0.07-0.52,0.58-1.16    c0.61-0.63,1.76-1.25,3.26-1.79c3.02-1.1,7.52-2.02,12.94-2.67c2.71-0.33,5.66-0.61,8.78-0.8c3.12-0.2,6.41-0.36,9.82-0.42    c3.41-0.05,6.93-0.1,10.5-0.02c3.58,0.07,7.21,0.2,10.83,0.38c3.62,0.21,7.26,0.47,10.81,0.78c3.57,0.29,7.06,0.71,10.44,1.13    c6.76,0.86,13.04,1.95,18.36,3.19c5.32,1.22,9.7,2.62,12.59,4.03c1.44,0.7,2.51,1.44,3.05,2.13c0.57,0.7,0.42,1.24,0.45,1.21    l0.02-39.13c0-1.32-0.71-2.52-1.86-3.17c-5.62-3.16-19.62-9.39-51.56-13.57c30.8,0.61,56.03,6.55,55.79,10.93l-1.41,26.54    L318.72,185.81z"/>
		<path class="st0" d="M90.32,170.54c19.36-7.34,38.78-14.5,58.21-21.64l58.36-21.22l0.33-0.12l0.32,0.15l55.77,27.31l27.83,13.78    l27.75,13.93l-28.11-13.2l-28.03-13.36l-55.94-26.96l0.65,0.03l-58.49,20.86C129.44,156.98,109.91,163.85,90.32,170.54z"/>
	</g>
	<g>
		<path class="st0" d="M293.08,276.55c-24.34-23.14-27.29-74.09-16.24-93.83l2.91,1.63c-10.56,18.86-7.7,67.61,15.62,89.78    L293.08,276.55z"/>
	</g>
	<g>
		<path class="st0" d="M293.78,278.83c-1.9-0.34-3.16-2.16-2.81-4.05c0.34-1.9,2.16-3.16,4.05-2.81c1.9,0.34,3.16,2.16,2.81,4.05    C297.49,277.91,295.67,279.17,293.78,278.83z"/>
		<path class="st0" d="M294.61,274.21l27.94,6.29c0,0-0.12,15.83-16.6,22.96l-12.47-27.2L294.61,274.21z"/>
	</g>
</g>
<g id="OBJECTS">
</g>
<g id="DESIGNED_BY_FREEPIK">
</g>
</svg>